<svg
  viewBox="0 0 344 125"
  xmlns="http://www.w3.org/2000/svg"
  fill="currentColor"
  aria-label="BloomBagarre"
>
  <path
    d="M343.999 74.1985L343.401 83.7932L317.009 82.1467L316.343 92.799L338.423 94.178L337.825 103.774L315.743 102.396L315.045 113.576L341.435 115.225L340.834 124.82L303.632 122.497L306.797 71.8762L343.999 74.1985Z"
  ></path>
  <path
    fill-rule="evenodd"
    clip-rule="evenodd"
    d="M28.2259 72.5657C31.9559 72.3347 34.9914 72.7283 37.3314 73.7463C39.7192 74.7113 41.5029 76.1433 42.6839 78.0422C43.8638 79.9411 44.5271 82.0738 44.6741 84.4416C44.8081 86.6066 44.4695 88.4742 43.6565 90.0422C42.8971 91.5472 41.7764 92.8406 40.3958 93.8078C38.9879 94.7537 37.3654 95.5123 35.5286 96.0813C33.6887 96.5993 31.7883 96.9686 29.8284 97.1907C34.1223 97.0767 37.5646 97.4975 40.1546 98.4494C42.7933 99.3994 44.7275 100.795 45.9544 102.641C47.1794 104.436 47.864 106.517 48.011 108.885C48.208 112.058 47.6342 114.647 46.2913 116.651C44.9483 118.656 42.9678 120.195 40.3528 121.267C37.7369 122.339 34.6397 122.986 31.0608 123.207L17.2972 124.058L17.2981 124.059L6.48663 124.728L3.34795 74.1047L28.2259 72.5657ZM32.722 102.246C31.484 101.868 30.0082 101.732 28.2942 101.838L15.9681 102.6L16.7034 114.462L28.8782 113.709C31.7512 113.531 33.8137 112.924 35.0657 111.886C36.3165 110.848 36.8783 109.296 36.7503 107.231C36.6663 105.871 36.2698 104.783 35.5599 103.967C34.9029 103.148 33.9569 102.574 32.722 102.246ZM29.761 82.634C28.6812 82.3471 27.4093 82.2491 25.9476 82.3391L14.7552 83.0305L15.43 93.9114L26.7728 93.2092C28.1838 93.1222 29.3834 92.8713 30.3694 92.4563C31.4064 92.0383 32.1789 91.4327 32.6858 90.6438C33.2408 89.7998 33.4778 88.7242 33.3958 87.4143C33.3088 86.0043 32.9404 84.9399 32.2884 84.2219C31.6844 83.4499 30.841 82.921 29.761 82.634Z"
  ></path>
  <path
    fill-rule="evenodd"
    clip-rule="evenodd"
    d="M280.685 70.6799C284.318 70.8329 287.549 71.5503 290.376 72.8323C293.205 74.0632 295.378 75.8972 296.892 78.3352C298.459 80.7252 299.167 83.7103 299.015 87.2903C298.868 90.77 297.914 93.5828 296.156 95.7307C294.449 97.8306 292.185 99.327 289.367 100.218C287.704 100.755 285.921 101.093 284.018 101.236C284.765 101.476 285.436 101.771 286.028 102.122C287.361 102.835 288.487 103.741 289.401 104.841C290.315 105.94 291.194 107.242 292.04 108.741L299.506 122.24L287.017 121.712L279.074 106.981C278.135 105.274 277.023 104.04 275.742 103.278C274.51 102.519 272.783 102.093 270.563 101.999L270.567 101.998L266.626 101.832L265.824 120.816L254.998 120.358L257.144 69.6848L280.685 70.6799ZM266.994 93.134L279.333 93.6565C280.897 93.7225 282.296 93.5536 283.526 93.1506C284.755 92.7486 285.719 92.0825 286.415 91.1516C287.162 90.2236 287.57 88.9529 287.638 87.3401C287.706 85.7261 287.409 84.3996 286.745 83.3606C286.132 82.3248 285.228 81.5812 284.034 81.1262C282.844 80.6212 281.465 80.3348 279.901 80.2688L267.561 79.7463L266.994 93.134Z"
  ></path>
  <path
    fill-rule="evenodd"
    clip-rule="evenodd"
    d="M101.528 119.964L89.6419 120.445L85.1526 109.338L64.7044 110.166L61.1028 121.602L49.597 122.067L66.5403 70.6203L80.469 70.0559L101.528 119.964ZM71.1116 89.8303L67.6292 100.88L81.5052 100.317L77.1673 89.5852L73.7034 78.967L71.1116 89.8303Z"
  ></path>
  <path
    d="M126.306 68.0539C129.891 67.9849 133.159 68.4524 136.108 69.4553C139.107 70.4583 141.687 71.9481 143.847 73.925C146.05 75.8924 147.803 78.3125 148.985 81.0198L139.952 88.1604C139.475 86.3269 138.616 84.6142 137.432 83.135C136.241 81.643 134.728 80.4863 132.894 79.6633C131.109 78.7893 128.98 78.3761 126.505 78.4231C123.425 78.4821 120.862 79.2125 118.818 80.6135C116.773 81.9654 115.267 83.8118 114.302 86.1516C113.337 88.4915 112.886 91.2268 112.946 94.3557C113.008 97.5847 113.592 100.375 114.698 102.727C115.804 105.078 117.378 106.89 119.423 108.163C121.467 109.386 123.929 109.969 126.807 109.914C129.231 109.868 131.268 109.45 132.92 108.661C134.623 107.871 135.991 106.76 137.025 105.327C138.02 104.011 138.794 102.505 139.356 100.815L125.425 101.082L125.258 92.3782L149.574 91.9114L150.095 119.083L142.899 119.222L139.968 100.803C139.893 104.792 139.176 108.238 137.818 111.142C136.458 113.994 134.505 116.203 131.959 117.766C129.463 119.328 126.397 120.143 122.761 120.213C118.721 120.29 115.091 119.376 111.872 117.469C108.705 115.561 106.174 112.707 104.284 108.907C102.391 105.058 101.39 100.281 101.281 94.5793C101.184 89.5334 102.081 85.0491 103.976 81.1262C105.92 77.1522 108.764 74.0168 112.509 71.7248C116.253 69.3809 120.852 68.158 126.306 68.0539Z"
  ></path>
  <path
    fill-rule="evenodd"
    clip-rule="evenodd"
    d="M230.99 69.0227C234.625 69.1027 237.87 69.7528 240.723 70.9758C243.577 72.1478 245.787 73.938 247.351 76.344C248.967 78.701 249.735 81.6712 249.658 85.2532C249.581 88.7338 248.687 91.5664 246.973 93.7502C245.31 95.8852 243.079 97.4262 240.28 98.3752C238.627 98.9461 236.85 99.3221 234.951 99.5051C235.657 99.7093 236.336 99.9926 236.978 100.35C238.327 101.035 239.47 101.917 240.407 102.997C241.343 104.077 242.249 105.36 243.126 106.843L250.869 120.187L238.371 119.914L230.125 105.35C229.152 103.663 228.016 102.452 226.718 101.717C225.471 100.983 223.737 100.592 221.515 100.544L221.516 100.543L217.576 100.457L217.163 119.454L206.332 119.22L207.434 68.5119L230.99 69.0227ZM217.765 91.7541L230.112 92.0227C231.677 92.0557 233.071 91.8599 234.292 91.4319C235.514 91.0039 236.464 90.3172 237.141 89.3723C237.868 88.4293 238.249 87.1502 238.285 85.5364C238.32 83.9225 237.995 82.6023 237.31 81.5774C236.675 80.5545 235.757 79.8276 234.554 79.3977C233.352 78.9177 231.968 78.6612 230.403 78.6272L218.056 78.3576L217.765 91.7541Z"
  ></path>
  <path
    fill-rule="evenodd"
    clip-rule="evenodd"
    d="M184.973 68.386L203.913 119.134L192.019 119.115L187.999 107.829L167.536 107.8L163.457 119.073L151.942 119.057L171.033 68.3645L184.973 68.386ZM174.792 87.7492L170.849 98.6448L184.737 98.6643L180.853 87.759L177.838 77.0051L174.792 87.7492Z"
  ></path>
  <path
    d="M238.433 26.7405L244.313 41.01L247.642 52.385L251.471 41.1682L257.975 27.1711L268.711 27.4084L267.871 65.4387L259.747 65.258L260.063 51.0119L261.537 35.7112L256.713 48.2698L251.77 58.4953L243.248 58.3088L238.762 47.8733L234.441 35.1135L235.294 50.466L234.98 64.7131L226.857 64.5334L227.697 26.5032L238.433 26.7405Z"
  ></path>
  <path
    fill-rule="evenodd"
    clip-rule="evenodd"
    d="M95.7181 26.9582C98.52 26.8912 100.784 27.2718 102.509 28.1018C104.271 28.8917 105.567 30.017 106.398 31.4739C107.228 32.9299 107.665 34.5484 107.707 36.3264C107.746 37.9532 107.438 39.3435 106.784 40.4944C106.172 41.6003 105.297 42.5379 104.236 43.2239C103.153 43.8938 101.915 44.4153 100.522 44.7893C99.1279 45.1252 97.693 45.3492 96.2181 45.4602C99.44 45.4972 102.007 45.9095 103.92 46.6955C105.871 47.4825 107.281 48.5842 108.149 50.0022C109.015 51.3822 109.469 52.9625 109.512 54.7405C109.569 57.1241 109.066 59.049 108.002 60.5129C106.938 61.9768 105.411 63.073 103.42 63.802C101.429 64.531 99.0897 64.9284 96.3997 64.9924L86.0599 65.2385L86.0618 65.2395L77.9388 65.4328L77.0286 27.4035L95.7181 26.9582ZM94.9358 48.8977L85.6761 49.1194L85.889 58.0305L95.0355 57.8127C97.1933 57.7607 98.7569 57.3632 99.7249 56.6213C100.692 55.8793 101.155 54.7309 101.118 53.1809C101.094 52.159 100.829 51.3314 100.322 50.7014C99.8516 50.0684 99.1585 49.6113 98.2415 49.3313C97.3256 49.0113 96.2227 48.8677 94.9358 48.8977ZM93.7317 34.217L93.7327 34.218L85.3235 34.4182L85.5198 42.592L94.0413 42.3889C95.1011 42.3629 96.0072 42.209 96.7581 41.926C97.547 41.642 98.1432 41.211 98.5462 40.634C98.9861 40.018 99.1952 39.2165 99.1712 38.2336C99.1477 37.24 98.9288 36.4679 98.5159 35.9172L98.261 35.5949C97.8435 35.1116 97.2841 34.7624 96.5823 34.5471C95.7813 34.3011 94.8307 34.192 93.7317 34.217Z"
  ></path>
  <path
    fill-rule="evenodd"
    clip-rule="evenodd"
    d="M203.15 25.676C205.991 25.701 208.581 26.2346 210.92 27.2766C213.26 28.2815 215.256 29.681 216.908 31.4748C218.596 33.2678 219.885 35.3621 220.773 37.7541C221.699 40.1091 222.15 42.6493 222.126 45.3742C222.102 48.099 221.607 50.6488 220.639 53.0246C219.709 55.4014 218.384 57.4717 216.663 59.2356C214.981 61.0006 212.961 62.384 210.604 63.385C208.247 64.348 205.648 64.8182 202.807 64.7932C199.966 64.7682 197.374 64.2532 195.034 63.2492C192.779 62.239 190.745 60.7928 189.049 58.9944C187.36 57.2004 186.053 55.107 185.127 52.7141C184.239 50.3222 183.806 47.7642 183.83 45.0383C183.854 42.3133 184.331 39.7806 185.261 37.4416C186.229 35.0658 187.573 32.9956 189.293 31.2317C191.012 29.4688 193.074 28.0765 195.352 27.1408C197.709 26.1389 200.309 25.651 203.15 25.676ZM203.081 33.511C200.771 33.491 198.815 33.9844 197.215 34.9924C195.654 35.9624 194.468 37.3338 193.657 39.1057C192.846 40.8397 192.429 42.8425 192.409 45.1135C192.391 47.3463 192.77 49.356 193.55 51.1418C194.33 52.9267 195.492 54.3393 197.035 55.3742C198.618 56.3722 200.565 56.8806 202.875 56.9006C205.224 56.9216 207.18 56.4467 208.742 55.4768C210.341 54.4688 211.528 53.0789 212.301 51.3069C213.112 49.5349 213.528 47.532 213.547 45.299C213.567 43.029 213.187 41.0187 212.407 39.2707C211.665 37.485 210.502 36.0929 208.92 35.0949C207.376 34.059 205.43 33.531 203.081 33.511Z"
  ></path>
  <path
    fill-rule="evenodd"
    clip-rule="evenodd"
    d="M160.5 25.5657C163.341 25.5557 165.938 26.0566 168.29 27.0696C170.643 28.0455 172.655 29.4199 174.327 31.1926C176.038 32.9656 177.354 35.0431 178.272 37.4231C179.227 39.7669 179.71 42.3028 179.72 45.0266C179.73 47.7516 179.265 50.3095 178.326 52.6975C177.426 55.0853 176.127 57.1714 174.429 58.9573C172.769 60.7411 170.766 62.1489 168.421 63.1799C166.076 64.1719 163.484 64.6728 160.643 64.6838C157.802 64.6938 155.205 64.2106 152.853 63.2346C150.585 62.2532 148.533 60.8336 146.815 59.0569C145.104 57.284 143.77 55.2072 142.815 52.8254C141.897 50.4455 141.433 47.8912 141.423 45.1662C141.413 42.4412 141.858 39.903 142.759 37.553C143.697 35.165 145.016 33.0782 146.714 31.2932C148.411 29.5089 150.456 28.091 152.722 27.1272C155.067 26.0972 157.659 25.5757 160.5 25.5657ZM160.529 33.3996C158.218 33.4087 156.269 33.9283 154.682 34.9553C153.133 35.9452 151.963 37.3308 151.174 39.1115C150.385 40.8555 149.995 42.864 150.003 45.135C150.011 47.3679 150.416 49.3727 151.218 51.1487C152.02 52.9247 153.199 54.3211 154.756 55.3371C156.351 56.315 158.303 56.8002 160.614 56.7922C162.962 56.7832 164.912 56.2851 166.461 55.2951C168.049 54.2672 169.218 52.8621 169.969 51.0803C170.758 49.2983 171.148 47.2898 171.14 45.0578C171.132 42.787 170.727 40.7821 169.925 39.0442C169.161 37.2682 167.982 35.8913 166.387 34.9123C164.83 33.8963 162.877 33.3916 160.529 33.3996Z"
  ></path>
  <path
    d="M122.689 57.2678L141.723 57.008L141.821 64.218L114.663 64.5891L114.145 26.552L122.269 26.4416L122.689 57.2678Z"
  ></path>
  <path
    d="M35.0628 17.1555C36.2389 13.0378 40.5328 10.6525 44.6546 11.8274C45.7202 12.1311 46.709 12.6594 47.553 13.3772C48.397 14.0949 49.0773 14.9857 49.5481 15.9885C50.019 16.9913 50.2693 18.0838 50.2825 19.1916C50.2957 20.2994 50.0721 21.3976 49.6253 22.4114C49.9692 22.3514 50.323 22.3111 50.6829 22.2981C54.9659 22.1431 58.565 25.4879 58.72 29.7668C58.875 34.0458 55.5274 37.6411 51.2444 37.7961C50.8899 37.8082 50.5349 37.7961 50.1819 37.76C50.7013 38.7386 51.0043 39.8172 51.0716 40.9231C51.1388 42.0291 50.9687 43.1376 50.5716 44.1721C50.1745 45.2064 49.5597 46.1432 48.7698 46.9201C47.9798 47.6971 47.0324 48.2961 45.9915 48.676C41.9657 50.1457 37.5104 48.0757 36.0384 44.0549C35.9176 43.721 35.8187 43.3787 35.7444 43.0315C34.9733 43.8278 34.0407 44.45 33.0091 44.8557C31.9775 45.2614 30.8709 45.4416 29.764 45.384C28.657 45.3264 27.575 45.0323 26.5911 44.5217C25.6073 44.0111 24.7442 43.296 24.0599 42.424C23.376 41.552 22.8872 40.5431 22.6263 39.466C22.3654 38.3892 22.3384 37.269 22.5472 36.1809C22.7561 35.0926 23.1961 34.0613 23.8372 33.1574C24.4784 32.2536 25.3059 31.4975 26.264 30.9407C25.2685 30.4547 24.3886 29.7612 23.6839 28.9065C22.9793 28.0517 22.4662 27.0554 22.179 25.9856C21.8919 24.9156 21.8369 23.7961 22.0189 22.7033C22.2009 21.6105 22.6152 20.5688 23.2337 19.6496C23.853 18.7303 24.6625 17.9548 25.6067 17.3742C26.551 16.7936 27.6084 16.4212 28.7083 16.2834C29.8082 16.1457 30.9254 16.2456 31.9837 16.5754C33.0418 16.9052 34.0173 17.4574 34.844 18.1955C34.893 17.8497 34.9638 17.5014 35.0628 17.1555Z"
  ></path>
  <path
    d="M324.325 30.9514C324.347 30.989 327.271 35.7375 327.271 39.9407C327.271 44.1457 324.344 48.8989 324.325 48.9299L300.754 39.9397L324.325 30.9514Z"
  ></path>
  <path
    d="M6.33819 26.7912C7.27615 26.4728 8.30206 26.5393 9.19073 26.9768C10.0795 27.4144 10.7579 28.1875 11.0774 29.1252C11.1324 29.2892 11.1744 29.4554 11.2064 29.6203C11.5865 29.2455 12.042 28.9556 12.5433 28.7717C13.0446 28.5878 13.5801 28.5138 14.1126 28.5539C14.6449 28.5941 15.1622 28.7482 15.6302 29.0051C16.0982 29.2621 16.5058 29.6165 16.8255 30.0442C17.1447 30.4716 17.3693 30.9623 17.4827 31.4836C17.5961 32.0048 17.5964 32.5443 17.4837 33.0657C17.3709 33.5871 17.1471 34.0783 16.8284 34.5061C16.5097 34.9339 16.1033 35.2888 15.636 35.5461C16.11 35.791 16.5259 36.1347 16.8558 36.5539C17.1856 36.9732 17.4216 37.4585 17.5481 37.9768C17.6746 38.495 17.6888 39.0347 17.5892 39.5588C17.4895 40.0828 17.2787 40.5793 16.971 41.0149C16.6625 41.4506 16.2642 41.8152 15.803 42.0842C15.3419 42.3532 14.8283 42.5204 14.2972 42.5744C13.766 42.6284 13.2289 42.5683 12.723 42.3977C12.2171 42.227 11.7535 41.9499 11.3636 41.5852C11.283 42.093 11.0985 42.5786 10.8216 43.0119C10.5446 43.4453 10.1814 43.8173 9.7542 44.1037C9.32705 44.3902 8.84522 44.5853 8.33917 44.677C7.83311 44.7687 7.31329 44.7553 6.8128 44.6369C6.31233 44.5186 5.84137 44.2981 5.42999 43.9895C5.01867 43.6809 4.67579 43.2903 4.42217 42.843C4.16854 42.3956 4.0099 41.9004 3.95635 41.3889C3.90283 40.8775 3.95525 40.3605 4.11065 39.8703C4.16165 39.7053 4.2252 39.5448 4.2962 39.3928C3.76852 39.4728 3.22958 39.4388 2.71612 39.2932C2.20285 39.1476 1.72659 38.894 1.31963 38.549C0.912575 38.2039 0.583349 37.775 0.355767 37.2922C0.128295 36.8096 0.00758821 36.2837 0.00029828 35.7502C-0.00643187 35.2165 0.100789 34.687 0.315728 34.1985C0.530665 33.71 0.848444 33.2738 1.24639 32.9182C1.64438 32.5626 2.1138 32.2958 2.62335 32.1369C3.13271 31.9782 3.67014 31.9309 4.19952 31.9973C3.96064 31.5203 3.82682 30.9971 3.80694 30.4641C3.7871 29.9311 3.88162 29.3998 4.08428 28.9065C4.28697 28.4131 4.59389 27.9689 4.98272 27.6037C5.37151 27.2387 5.83414 26.9615 6.33917 26.7903L6.33819 26.7912Z"
  ></path>
  <path
    d="M291.758 5.40159C295.964 5.40168 300.717 8.32293 300.754 8.34593L291.758 31.8967L282.761 8.34593C282.786 8.33071 287.547 5.40159 291.758 5.40159Z"
  ></path>
  <path
    d="M310.635 8.47093C310.693 8.48493 316.089 9.72866 319.028 12.6653C321.982 15.6173 323.224 21.051 323.224 21.051L300.144 31.5324L310.635 8.47093Z"
  ></path>
  <path
    d="M58.4896 0.00119833C58.9516 0.0066329 59.4071 0.111755 59.8255 0.307839C60.2439 0.503923 60.6155 0.787289 60.9153 1.13889C61.2151 1.49046 61.4363 1.90187 61.5638 2.34592C61.8633 1.9942 62.2345 1.71031 62.6526 1.51389C63.0708 1.3175 63.5266 1.21316 63.9886 1.20725C64.4506 1.20138 64.9092 1.29398 65.3323 1.47971C65.7553 1.66545 66.1333 1.94038 66.4417 2.2844C66.7496 2.6287 66.9808 3.03489 67.1185 3.47581C67.256 3.91663 67.2969 4.38186 67.2396 4.84007C67.1821 5.29845 67.0276 5.73963 66.7855 6.13303C66.5433 6.52642 66.2196 6.8636 65.8362 7.12132C66.2634 7.29693 66.648 7.56194 66.9642 7.89866C67.2805 8.23562 67.5209 8.63673 67.6692 9.07444C67.8176 9.51216 67.8708 9.9769 67.8245 10.4367C67.7782 10.8964 67.6333 11.3412 67.4007 11.7405C67.1681 12.1396 66.8528 12.4842 66.4759 12.7512C66.0987 13.0183 65.6681 13.2014 65.2142 13.2883C64.7604 13.3751 64.2931 13.364 63.844 13.2551C63.395 13.1461 62.9743 12.9416 62.6106 12.6565C62.576 13.1176 62.4435 13.5665 62.221 13.9719C61.9984 14.3773 61.6911 14.7303 61.3206 15.0071C60.9501 15.2838 60.5244 15.478 60.0726 15.5764C59.6206 15.6748 59.1526 15.6751 58.7005 15.5774C58.2484 15.4797 57.8224 15.2862 57.4515 15.01C57.0807 14.7339 56.7733 14.3816 56.5501 13.9768C56.3269 13.5718 56.1929 13.1233 56.1575 12.6623C56.1222 12.2012 56.1861 11.7373 56.345 11.303C55.896 11.412 55.4288 11.4237 54.9749 11.3371C54.5212 11.2506 54.0914 11.0676 53.7142 10.801C53.3369 10.5343 53.0204 10.1901 52.7874 9.79124C52.5544 9.39226 52.4095 8.94718 52.3626 8.48753C52.3162 8.02797 52.3689 7.56372 52.5169 7.1262C52.6651 6.6885 52.9058 6.28745 53.222 5.95042C53.5382 5.61334 53.9234 5.34789 54.3509 5.1721C54.7781 4.99643 55.2379 4.91389 55.6995 4.93089C55.4573 4.53781 55.3022 4.09697 55.2444 3.63889C55.1867 3.18083 55.2275 2.7155 55.3646 2.27464C55.5016 1.83382 55.7321 1.42778 56.0394 1.08323C56.3467 0.738602 56.7243 0.462054 57.1468 0.275612C57.5696 0.0894479 58.0276 -0.00421247 58.4896 0.00119833Z"
  ></path>
</svg>