<svg width="466" height="119" viewBox="0 0 466 119" fill="none" xmlns="http://www.w3.org/2000/svg" aria-label="PNS KanD.I." id="logo-kandi">
<path d="M412.633 0.000758216C413.726 -0.0099772 414.844 0.0930985 415.978 0.322047L416.336 0.398219L416.345 0.400172L416.354 0.403102L416.895 0.534938L417.169 0.601344L417.176 0.609157L453.852 10.2263C461.071 12.1203 465.532 18.461 465.741 25.1668C465.772 26.1581 465.741 28.1875 465.741 28.1875C465.741 32.3029 465.339 36.3404 462.694 39.9734L440.252 70.8045C432.775 81.0732 416.876 78.8795 412.445 67.0252L412.438 67.0174L412.36 66.8006L411.164 63.4597C403.614 65.8989 396.064 68.3348 388.515 70.7664V76.3308H397.815C404.818 76.3313 410.59 81.7057 411.17 88.5789C411.202 88.9595 411.22 89.3449 411.22 89.7342V103.564C411.219 110.975 405.203 116.952 397.817 116.953H339.649C333.995 116.952 329.151 113.448 327.187 108.482C321.804 112.39 315.502 115.123 308.65 116.306C304.691 116.99 300.148 116.953 293.498 116.953H257.46C254.682 116.953 252.096 116.106 249.952 114.655C246.921 115.363 243.962 115.959 241.09 116.502L240.296 116.651L240.204 116.669H240.17C236.988 117.254 233.812 117.787 230.586 118.269L230.575 118.271L230.489 118.283C230.087 118.349 229.679 118.41 229.268 118.466L225.817 118.983L225.631 118.799C225.078 118.829 224.52 118.853 223.957 118.864L223.958 118.865L223.87 118.867H223.852L223.025 118.875H222.939C218.709 118.875 213.356 118.245 208.959 115.052L208.949 115.045L208.827 114.954L208.819 114.948L208.79 114.927L208.711 114.866L208.703 114.86C208.413 114.636 208.134 114.404 207.865 114.168L202.809 116.214C198.089 118.122 192.389 118.786 186.497 118.866H186.48L186.465 118.867H186.432L185.33 118.875H185.266C182.604 118.875 179.635 118.62 176.822 117.676C174.436 116.874 171.476 115.32 169.293 112.397C169.104 112.523 168.913 112.65 168.719 112.772C163.342 116.145 157.195 117.612 150.714 117.612C146.771 117.612 141.637 116.97 137.582 113.694C137.168 113.942 136.745 114.182 136.312 114.409L136.305 114.413L136.297 114.416L135.575 114.78L135.568 114.783L135.562 114.787C131.426 116.788 126.898 117.612 122.27 117.612C115.6 117.612 109.166 115.641 104.249 110.67L104.202 110.624L104.193 110.614L104.185 110.605L104.139 110.557C104.023 110.436 103.91 110.311 103.798 110.188C101.034 112.544 97.9417 114.421 94.5469 115.78C90.3938 117.442 85.9846 118.216 81.4297 118.216C76.6591 118.216 71.4467 117.278 67.1758 114.007L67.1709 114.003L67.1269 113.969L67.124 113.967L67.0801 113.932L67.0781 113.93C64.7188 112.074 62.9571 109.722 61.6191 107.195C61.2006 109.094 60.3093 110.896 58.9355 112.424L58.9639 112.453L58.2197 113.161C55.5256 115.723 52.3304 116.336 50.127 116.403L49.7002 116.41H11.835C10.5538 116.41 6.3524 116.32 3.14746 112.923C0.795251 110.478 0.0118572 107.478 0.0117188 104.997V104.97L0.0224609 104.488L0.0234375 104.476V104.466C0.0528011 103.813 0.0234482 102.5 0.0234482 102.5C0.0234482 102.5 7.47033e-05 100.784 0 99.9802V99.9529L0.0107422 99.4715L0.0117188 99.4597V99.449C0.130252 96.8142 1.13241 94.2041 3.08789 92.1082L3.09961 92.0955L3.10547 92.0896C4.6498 90.4419 6.52193 89.3414 8.47168 88.7224L8.97168 88.5633L9.03125 88.5447L9.09277 88.533L9.60645 88.4373L10.0781 88.3474C10.2586 87.6748 10.4659 86.9042 10.6992 86.0418L10.71 86.0027L10.7139 85.9871L10.7188 85.9724L10.7314 85.9275C11.4888 83.2435 12.4159 79.9578 13.5088 76.076C14.6044 72.1445 15.7837 67.9334 17.0459 63.447L17.0537 63.4207L17.0566 63.409L17.0645 63.3845V63.3826C18.3649 58.8695 19.6447 54.3736 20.9033 49.9002C22.1618 45.4272 23.3147 41.2746 24.3613 37.448L24.3643 37.4373L24.376 37.3953L24.3799 37.3787L24.3828 37.367L24.3867 37.3543C24.7446 36.0964 25.0789 34.9057 25.3945 33.784C24.9435 33.4672 24.4857 33.1019 24.041 32.6785L24.04 32.6775L23.7988 32.447L23.7715 32.4207L23.7461 32.3924L23.5234 32.1453C21.426 29.8127 20.6813 27.0333 20.6807 24.6433V24.6404C20.6808 23.8275 20.6699 22.1054 20.6699 22.1054C20.6699 22.1054 20.6702 20.4417 20.6699 19.6414V19.6385C20.6703 16.6716 21.7708 13.318 24.6582 10.8435C27.3332 8.54721 30.423 7.92874 32.8096 7.92849H70.9277C71.3771 7.92852 72.0686 7.94808 72.9014 8.06716C74.9436 8.35771 77.8387 9.25478 80.082 11.9959C81.7912 14.049 82.4336 16.3152 82.625 18.1521C84.8434 15.8383 87.059 13.7957 89.2685 12.0945L89.2949 12.073L89.3037 12.0672L89.3115 12.0603L89.3467 12.034L89.3486 12.032C91.9243 10.0907 94.6978 8.46899 97.665 7.38845H97.667C97.673 7.38613 97.6868 7.38108 97.7012 7.37576L97.7031 7.37478C97.7031 7.37478 97.7056 7.37355 97.71 7.37185C97.7168 7.36919 97.7378 7.36058 97.7607 7.35232C100.695 6.27209 103.755 5.70208 106.894 5.70193H106.911L107.733 5.71658H107.742L107.751 5.71756C108.287 5.73624 108.827 5.77175 109.37 5.82888C113.154 6.22567 117.05 7.61159 120.205 10.7371C123.426 13.892 125.051 17.8694 125.322 22.0437L125.345 22.448V22.4588L125.346 22.4695L125.363 23.2908V23.3133V26V28.2898V28.3123C125.363 33.4627 123.688 38.601 119.512 42.4656L119.1 42.8357C114.921 46.4764 109.773 47.7897 104.754 47.7898C102.642 47.7898 100.558 47.6764 98.6523 47.3523C98.2196 47.2789 97.7108 47.2234 97.1191 47.2L96.4629 47.1873C94.295 47.1883 92.8645 47.4943 91.9668 47.8328L91.9023 47.8562L91.8867 47.8621L91.8232 47.8855L91.8223 47.8845C91.5837 47.9706 91.0631 48.2239 90.2812 48.8611L98.9726 75.8748C99.2793 74.7124 99.6328 73.5551 100.031 72.4051C101.715 67.5456 104.15 63.0039 107.282 58.7996L107.882 58.0105C110.915 54.0962 114.49 50.6316 118.557 47.615L118.586 47.5935L118.6 47.5838L119.454 46.9715C123.754 43.9522 128.5 41.6007 133.64 39.8943C134.873 39.4792 136.124 39.1137 137.39 38.7918H130.398V33.7869H130.39V2.46951H193.381V31.5564L186.002 38.7918H168.957C171.759 39.4107 174.358 40.1825 176.624 41.1746L177.114 41.3953C178.103 41.851 179.235 42.4476 180.329 43.2293C181.366 42.4815 182.442 41.774 183.559 41.1111C189.327 37.6859 195.612 35.7969 202.263 35.7967H202.34L202.396 35.7976L202.959 35.8045H203.021L203.074 35.8064H203.077C206.718 35.8984 211.095 36.6496 214.896 39.325L215.263 39.5896L215.27 39.5945L215.275 39.5994L215.626 39.8699L215.633 39.8748L215.732 39.9529L215.745 39.9627L215.758 39.9734L216.288 40.4168L216.3 40.4265L216.312 40.4373L216.41 40.5252C216.666 40.7533 216.912 40.9878 217.147 41.2254C219.83 39.6592 222.626 38.3937 225.532 37.5242C229.101 36.4308 232.744 35.7968 236.397 35.7967H236.475L236.529 35.7976L237.099 35.8045H237.169L237.188 35.8054L237.253 35.8074C239.44 35.8692 241.78 36.1829 244.086 36.9334C244.067 36.6504 244.058 36.3648 244.058 36.0769V31.406C244.055 31.295 244.052 31.1837 244.052 31.072V21.6121C244.052 14.2021 250.07 8.22577 257.455 8.22537H293.494C300.143 8.22537 304.687 8.18854 308.646 8.87185C314.633 9.90516 320.2 12.1211 325.101 15.2703C325.351 15.4313 325.6 15.5956 325.847 15.7615C326.297 16.0641 326.743 16.3738 327.182 16.6922C329.147 11.728 333.993 8.22569 339.646 8.22537H397.815C398.179 8.22539 398.537 8.24281 398.89 8.27224C401.574 3.43919 406.728 0.0589711 412.631 0.000758216H412.633Z" fill="var(--noir)"/>
<path d="M399.458 9.33674C402.355 3.53617 408.951 -0.237892 416.115 1.37306L416.657 1.50509L416.658 1.50629L453.598 11.1923C463.743 13.8532 468.075 25.8769 461.886 34.3788L439.443 65.2037C432.39 74.8876 417.344 72.7443 413.302 61.4541L413.301 61.4529L411.779 57.2004C403.69 59.8136 395.601 62.4229 387.512 65.0273V77.3299H397.815C404.651 77.3303 410.218 82.8631 410.218 89.7177V98.5468C410.218 105.401 404.652 110.933 397.815 110.933H339.647C333.947 110.933 329.133 107.087 327.688 101.835C322.195 106.093 315.644 109.064 308.477 110.301C304.623 110.966 300.184 110.933 293.495 110.933H257.456C254.729 110.933 252.204 110.053 250.154 108.56C246.99 109.309 243.901 109.931 240.899 110.499L240.105 110.649H240.075C236.872 111.238 233.677 111.775 230.432 112.26L230.346 112.272C229.938 112.339 229.527 112.401 229.114 112.456L226.159 112.899L226.015 112.757C225.325 112.8 224.628 112.831 223.925 112.844L223.837 112.847L223.011 112.854H222.934C218.774 112.854 213.68 112.23 209.54 109.223L209.417 109.132L209.387 109.109L209.308 109.049C208.869 108.71 208.456 108.354 208.066 107.987L202.427 110.267C197.876 112.107 192.321 112.766 186.477 112.845H186.448L186.418 112.847L185.316 112.854H185.259C182.652 112.854 179.803 112.604 177.133 111.708C174.659 110.876 171.596 109.214 169.544 105.996C169.098 106.307 168.645 106.613 168.179 106.905C162.989 110.161 157.035 111.592 150.706 111.592C146.653 111.592 141.524 110.895 137.668 107.445C137.075 107.82 136.467 108.175 135.84 108.503L135.117 108.867C131.144 110.789 126.773 111.592 122.261 111.592C115.787 111.592 109.633 109.683 104.947 104.944L104.9 104.897L104.855 104.849C104.515 104.495 104.191 104.131 103.882 103.761C101.015 106.354 97.7655 108.391 94.166 109.832C90.1422 111.442 85.8605 112.195 81.4195 112.195C76.7628 112.195 71.8024 111.278 67.7744 108.193L67.7311 108.16L67.6867 108.125C64.1887 105.373 62.0397 101.435 60.6449 97.4113C60.8106 98.1617 60.8898 98.906 60.89 99.6174V99.621C60.8893 102.492 59.7721 105.313 57.518 107.414L57.5204 107.417C54.9033 109.906 51.7535 110.389 49.6894 110.39H11.8233C10.5874 110.39 6.75935 110.293 3.85659 107.21C1.7196 104.99 1.00004 102.259 1 99.9787V99.9739L1.01081 99.4926C1.11924 97.0824 2.03426 94.7022 3.81935 92.7891L3.82176 92.7867C5.24292 91.2652 6.96917 90.2476 8.77455 89.6745L9.27547 89.5149L9.79201 89.4188L10.8816 89.2136C11.0982 88.4082 11.358 87.4358 11.6648 86.3018L11.6768 86.2562L11.69 86.2118C12.4482 83.5249 13.376 80.2347 14.4709 76.3457C15.5671 72.4122 16.7479 68.1991 18.011 63.7094L18.0182 63.683L18.0254 63.6578C19.3266 59.1423 20.6066 54.6451 21.8659 50.1694C23.125 45.6941 24.2781 41.54 25.3255 37.7107L25.3375 37.6687L25.3483 37.6267C26.3031 34.2702 27.1086 31.3983 27.7689 29.0101C26.8487 28.5747 25.7454 27.9254 24.7201 26.9493L24.4786 26.7188L24.2564 26.4716C22.3516 24.3538 21.6706 21.8278 21.6701 19.6397V19.6373C21.6704 16.91 22.6796 13.8545 25.3087 11.6016C27.7522 9.50359 30.5855 8.92769 32.8093 8.92746H70.9277C72.4108 8.92754 76.4495 9.13947 79.3041 12.6326C81.2507 14.9703 81.6859 17.6234 81.6862 19.4573C81.6861 19.8691 81.6609 20.2807 81.6141 20.6887L82.455 19.7885C84.9501 17.1061 87.4265 14.7731 89.8811 12.8835L89.916 12.8559L89.9508 12.8295C92.4665 10.9334 95.1533 9.36671 98.0077 8.32733C98.021 8.32234 98.0351 8.31669 98.0485 8.31173C98.0653 8.30562 98.0821 8.29859 98.099 8.29252C100.93 7.24948 103.875 6.70113 106.893 6.70099L107.716 6.71539C111.812 6.85827 116.115 8.09963 119.492 11.4444C122.622 14.5077 124.157 18.3941 124.337 22.4867L124.355 23.3077C124.355 28.3975 122.651 33.3997 118.434 37.0746C114.484 40.5148 109.595 41.7819 104.746 41.782C102.665 41.782 100.642 41.6695 98.8113 41.3583C98.3271 41.2761 97.7691 41.2172 97.1307 41.1927L96.464 41.1795C94.2001 41.1795 92.6415 41.4974 91.6038 41.8888L91.5401 41.9128L91.4764 41.9356C90.9166 42.1368 89.7521 42.7719 88.0588 44.563L87.8967 44.7346L98.8413 78.7402C99.0167 78.6467 99.1995 78.5566 99.3879 78.4689C99.7886 76.5424 100.319 74.6286 100.976 72.7317C102.625 67.9729 105.01 63.5217 108.084 59.3957C111.181 55.2384 114.888 51.5796 119.152 48.417L119.171 48.4038L119.191 48.3894C123.625 45.138 128.568 42.6305 133.959 40.841C139.564 38.9547 145.528 38.0564 151.782 38.0564L153.632 38.072C157.91 38.1484 161.914 38.495 165.611 39.1498C169.589 39.8472 173.225 40.7767 176.223 42.0892C177.457 42.6298 178.961 43.3897 180.323 44.473C181.515 43.5805 182.765 42.744 184.069 41.9692C189.699 38.6266 195.809 36.7951 202.263 36.7949H202.319L202.375 36.7961L202.946 36.8033H202.999L203.052 36.8045C206.704 36.8968 211.012 37.6717 214.666 40.3909L215.016 40.6609L215.116 40.739L215.545 41.0978L215.647 41.1831L215.745 41.2707C216.186 41.6627 216.594 42.0719 216.972 42.4925C219.805 40.7717 222.755 39.398 225.819 38.4813C229.312 37.4106 232.858 36.7951 236.398 36.7949H236.453L236.508 36.7961L237.086 36.8033H237.151L237.216 36.8057C241.096 36.9142 245.396 37.839 249.054 40.6165L249.406 40.8914L249.407 40.8926C250.129 41.4716 250.784 42.0908 251.374 42.7422V41.4891C247.619 39.5274 245.052 35.6076 245.051 31.0709V21.6105C245.052 14.7554 250.62 9.22406 257.456 9.22392H293.495C300.183 9.22392 304.623 9.19124 308.477 9.85645C315.644 11.0935 322.196 14.0632 327.688 18.3206C329.133 13.0698 333.948 9.22409 339.647 9.22392H397.815C398.372 9.22396 398.92 9.2656 399.458 9.33674Z" fill="var(--blanc)"/>
<path d="M192.374 26.1319L190.539 27.9371L190.445 28.0307L190.425 28.0499L187.471 30.9281L187.473 30.9293L187.381 31.0193L185.585 32.7861H131.389V3.46871H192.374V26.1319Z" fill="var(--blanc)"/>
<path fill-rule="evenodd" clip-rule="evenodd" d="M406.913 18.047C405.204 13.2722 409.556 8.53967 414.473 9.82786L451.413 19.5138C455.714 20.6417 457.536 25.7287 454.923 29.318L432.48 60.1431C429.493 64.2452 423.118 63.3317 421.409 58.5568L417.076 46.4492C404.351 50.565 391.627 54.668 378.901 58.7623V82.1505C378.901 84.2402 380.6 85.9342 382.695 85.9342H397.815C399.91 85.9343 401.608 87.6284 401.608 89.7179V98.5469C401.608 100.636 399.91 102.331 397.815 102.331H339.647C337.552 102.331 335.854 100.636 335.854 98.5469V89.7179C335.854 87.6283 337.552 85.9342 339.647 85.9342H353.611C355.706 85.9342 357.405 84.2402 357.405 82.1505V65.6695C356.793 65.8659 356.181 66.0632 355.569 66.2596C348.872 68.4075 342.174 70.5522 335.476 72.695C335.436 72.9906 335.395 73.2788 335.346 73.561C332.839 88.008 321.495 99.3228 307.011 101.823C304.068 102.331 300.543 102.331 293.494 102.331H257.455C255.422 102.331 253.761 100.734 253.666 98.7291C253.426 98.8052 253.186 98.8823 252.946 98.9583L252.941 98.9592L252.795 99.0048L252.777 99.0109L252.757 99.0161C248.212 100.28 243.749 101.205 239.298 102.046H239.295C235.923 102.676 232.568 103.242 229.158 103.752L229.157 103.751C227.462 104.041 225.662 104.207 223.759 104.243L222.933 104.251C219.388 104.251 216.529 103.663 214.603 102.264L214.573 102.242C212.68 100.78 211.716 98.7043 211.619 96.177C211.528 93.7267 212.056 90.8382 213.135 87.5516L219.641 67.0416L219.646 67.027C220.119 65.5969 220.431 64.4159 220.596 63.4747C220.765 62.5111 220.76 61.897 220.685 61.551L220.684 61.5423C220.611 61.1984 220.483 61.05 220.359 60.9636C220.227 60.872 219.98 60.7685 219.534 60.7441L219.33 60.7393C218.713 60.7395 217.911 60.9684 216.895 61.5756C215.949 62.1662 214.867 63.1243 213.658 64.5033L213.66 64.5046C212.504 65.8706 211.302 67.6456 210.065 69.8449L210.06 69.8536C208.839 71.9854 207.644 74.5877 206.481 77.6698L206.483 77.6711C205.821 79.442 205.263 81.171 204.81 82.854L204.809 82.8615C204.354 84.516 204.006 86.0244 203.761 87.3842C203.545 88.5827 203.43 89.5463 203.405 90.2883L203.4 90.5927C203.4 91.3864 203.534 92.0193 203.76 92.5202L204.045 93.0854L204.065 93.1249C204.425 93.9047 204.614 94.762 204.656 95.6745L204.665 96.0687C204.664 98.9787 202.477 100.981 199.197 102.291L199.198 102.292C196.103 103.543 191.794 104.17 186.36 104.243L185.259 104.251C183.125 104.251 181.313 104.035 179.877 103.552C178.436 103.068 177.26 102.273 176.616 101.047L176.607 101.031L176.599 101.014C175.517 98.798 175.921 95.6987 177.232 92.062L186.015 64.7495L186.018 64.7372L186.023 64.725C186.435 63.5292 186.724 62.5346 186.9 61.7355C187.079 60.9188 187.123 60.3798 187.096 60.0642L187.095 60.0617C187.075 59.818 187.028 59.7088 187.008 59.6726C186.985 59.6659 186.932 59.6555 186.838 59.6555C186.504 59.6558 185.966 59.8032 185.18 60.3021L185.161 60.3131L185.144 60.3241C184.409 60.7576 183.261 61.7199 181.668 63.317L181.622 63.3626L181.571 63.4046C181.248 63.668 180.914 63.8913 180.576 64.0622C180.216 64.2676 179.827 64.3801 179.427 64.4047L179.254 64.4096C178.742 64.4095 178.182 64.2634 177.733 63.837C177.301 63.4263 177.119 62.8951 177.053 62.4216L177.047 62.3786L177.043 62.3343C176.976 61.3739 177.32 60.4437 177.867 59.5889C180.506 55.401 184.048 51.991 188.468 49.3659C192.9 46.7343 197.505 45.3988 202.263 45.3986L202.835 45.4061C205.659 45.4775 208.002 46.0894 209.683 47.4151L210.016 47.6933C211.621 49.123 212.376 51.1019 212.376 53.4601L212.364 54.0302C212.309 55.3749 212.062 56.8246 211.637 58.3684L211.623 58.4088C214.23 55.3494 216.919 52.8651 219.691 50.9745C222.596 48.9931 225.47 47.5648 228.312 46.7177C231.149 45.8451 233.848 45.3987 236.397 45.3986L236.975 45.4061C239.834 45.486 242.231 46.1701 244.018 47.6022C245.928 49.1345 246.98 51.3159 247.262 53.9898L247.305 54.4848C247.475 56.9768 246.973 59.8235 245.881 62.9894L245.882 62.9906L238.803 85.1374L238.798 85.15C238.323 86.5841 238.005 87.7603 237.83 88.6884C237.651 89.6349 237.643 90.2168 237.7 90.5235L237.751 90.7255C237.804 90.8957 237.862 90.9741 237.888 91.0028C237.892 91.0075 237.899 91.0101 237.903 91.0138C241.813 90.1319 245.678 89.1754 249.335 88.0331C252.728 86.836 256.12 85.6358 259.512 84.4378C259.81 83.9562 259.985 83.3893 259.985 82.7813V37.3769C259.985 35.7444 258.741 34.4014 257.147 34.2398L256.5 34.2078C254.906 34.0462 253.662 32.7031 253.662 31.0707V21.6113C253.662 19.5217 255.36 17.8277 257.455 17.8276H293.494C300.543 17.8276 304.068 17.827 307.011 18.335C321.495 20.8351 332.84 32.1502 335.346 46.5972C335.726 48.7861 335.819 51.2976 335.843 55.3489L314.352 62.979C314.356 62.0646 314.358 61.0995 314.358 60.0791C314.358 50.6545 314.358 45.9418 312.403 42.3947C310.958 39.7731 308.794 37.6148 306.166 36.1735C302.61 34.2238 297.885 34.2237 288.436 34.2237H285.275C283.18 34.2237 281.481 35.9177 281.481 38.0074V76.6684C292.438 72.7882 303.39 68.9016 314.339 65.0093C314.339 65.0056 314.339 65.0018 314.339 64.998L383.159 40.5647L383.119 40.4523C392.516 37.0837 401.913 33.7124 411.308 30.3317L406.913 18.047ZM310.27 80.7429C304.867 82.4654 299.465 84.1879 294.061 85.9074C299.922 85.8329 303.398 85.5023 306.166 83.9847C307.713 83.1363 309.096 82.0364 310.27 80.7429Z" fill="var(--rouge-pns)"/>
<path d="M106.894 15.3052C109.759 15.3052 111.951 16.0668 113.468 17.5911C114.985 19.0754 115.744 20.9818 115.744 23.3085C115.744 26.4373 114.754 28.8651 112.774 30.5902C110.794 32.3154 108.116 33.1792 104.745 33.1793C102.933 33.1792 101.436 33.078 100.256 32.8774C99.0765 32.677 97.8121 32.5769 96.4639 32.5769C93.4301 32.577 90.7956 32.9983 88.5623 33.8407C86.3291 34.6432 84.0742 36.2483 81.7988 38.6553L78.146 42.5411L91.8493 85.1154C92.4392 86.9206 93.1567 88.2653 93.9993 89.1479C94.842 90.0301 95.8331 90.4704 96.9705 90.4705C97.8973 90.4704 98.762 90.1896 99.5625 89.6281C100.363 89.0263 101.206 88.1238 102.09 86.9208C102.764 86.2791 103.354 86.039 103.86 86.1992C104.239 86.3196 104.493 86.5801 104.619 86.9812C104.787 87.3824 104.746 87.9646 104.493 88.7265C102.976 91.8958 101.058 94.5838 98.7401 96.7903C96.4646 98.9967 93.8726 100.682 90.9651 101.845C88.0574 103.009 84.8752 103.592 81.4196 103.592C77.7536 103.592 74.9511 102.849 73.0127 101.365C71.0743 99.8401 69.5368 97.1918 68.399 93.4205L59.1635 62.7321L50.9925 71.4228C50.2723 74.1094 49.5839 76.6881 48.9289 79.1576C47.8755 83.1289 46.9706 86.4791 46.2121 89.2071C45.4958 91.8947 45.0312 93.6414 44.8204 94.4439C44.6521 95.0856 44.6937 95.6478 44.9465 96.1291C45.2416 96.6104 45.8326 96.9507 46.7174 97.1512L50.5727 97.8741C51.1204 98.0747 51.542 98.3152 51.837 98.596C52.1318 98.8367 52.2791 99.1783 52.2792 99.6194C52.2791 100.261 52.0473 100.784 51.5839 101.185C51.1626 101.586 50.5303 101.786 49.6882 101.786H11.8234C10.9812 101.786 10.4119 101.625 10.1169 101.305C9.7799 100.984 9.61063 100.541 9.61062 99.9791C9.61089 99.4583 9.78026 99.0172 10.1169 98.6564C10.4539 98.2956 10.876 98.0346 11.3815 97.8741L15.5539 97.0908C16.3962 96.9303 17.0283 96.5697 17.4496 96.0083C17.9129 95.4468 18.2919 94.6847 18.5868 93.7224C18.7975 92.9201 19.261 91.1942 19.9772 88.5469C20.7357 85.8589 21.664 82.5676 22.7596 78.6761C23.8552 74.7444 25.0359 70.5312 26.3 66.0379C27.6063 61.5047 28.8912 56.9912 30.1553 52.4981C31.4196 48.0047 32.5779 43.8307 33.6315 39.9792C34.7271 36.1278 35.6341 32.8975 36.3505 30.2897C37.0665 27.6431 37.5081 25.998 37.6768 25.3556C37.8874 24.4333 37.8454 23.7107 37.5508 23.1892C37.2558 22.6678 36.6441 22.306 35.7172 22.1054L31.7988 21.3835C31.2932 21.1829 30.9131 20.9615 30.6603 20.7207C30.4078 20.4401 30.2812 20.079 30.2811 19.6382C30.2811 18.9963 30.4933 18.4941 30.9147 18.133C31.3781 17.7323 32.01 17.5311 32.81 17.531H70.927C71.7697 17.531 72.3385 17.7128 72.6335 18.0739C72.9282 18.3948 73.0757 18.8558 73.0758 19.4572C73.0757 19.9385 72.9283 20.3598 72.6335 20.7207C72.3385 21.0818 71.9376 21.3842 71.4319 21.6249L66.3123 22.7666C65.5118 23.0073 64.9425 23.2894 64.6055 23.6103C64.2685 23.9313 63.9521 24.5934 63.6573 25.5957C63.4886 26.2381 63.0249 27.8637 62.2666 30.4707C61.5503 33.0783 60.6444 36.308 59.5489 40.1592C58.4954 44.0106 57.3357 48.2035 56.0715 52.7369C55.0677 56.4607 54.0474 60.1982 53.0152 63.9491L88.7524 25.6561C91.0277 23.209 93.1561 21.2232 95.1366 19.6986C97.1593 18.1741 99.1196 17.0698 101.016 16.3877C102.954 15.6657 104.914 15.3052 106.894 15.3052Z" fill="#FF1B4C"/>
<path fill-rule="evenodd" clip-rule="evenodd" d="M151.781 46.6599C156.375 46.6599 160.484 46.98 164.108 47.6219C167.774 48.2637 170.66 49.0469 172.767 49.9695C174.874 50.8923 175.886 51.7752 175.802 52.6177C175.76 53.3798 175.421 53.9212 174.789 54.2421C174.2 54.563 173.568 54.9249 172.894 55.326C172.22 55.6871 171.734 56.3689 171.439 57.3718L163.666 84.7544C162.823 87.7229 162.526 89.7494 162.779 90.8328C163.032 91.9156 163.602 92.4571 164.487 92.4572C165.245 92.4571 165.983 92.1761 166.699 91.6148C167.457 91.0531 168.406 90.1094 169.544 88.7857C169.88 88.3851 170.133 88.1241 170.302 88.0037C170.47 87.8835 170.64 87.8237 170.808 87.8237C171.314 87.8239 171.608 88.085 171.693 88.606C171.819 89.1275 171.651 89.9704 171.187 91.1333C169.712 94.5434 167.183 97.3727 163.601 99.6194C160.02 101.866 155.72 102.989 150.706 102.989C147.124 102.989 144.617 102.267 143.184 100.823C141.793 99.3383 141.097 97.3311 141.097 94.8036C141.097 94.0416 141.162 93.1795 141.289 92.2171C141.373 91.5731 141.468 90.9104 141.571 90.2304C140.48 92.2107 139.354 93.9573 138.19 95.4664C136.21 97.9937 133.934 99.8796 131.364 101.123C128.793 102.367 125.758 102.989 122.261 102.989C117.499 102.989 113.769 101.626 111.072 98.8978C108.418 96.1295 107.089 92.2367 107.089 87.2216C107.089 83.3301 107.764 79.4379 109.113 75.5464C110.461 71.655 112.42 67.9829 114.991 64.5327C117.561 61.0825 120.661 58.014 124.285 55.326C127.951 52.638 132.081 50.5308 136.674 49.0062C141.309 47.4417 146.345 46.6599 151.781 46.6599ZM147.041 50.9929C145.566 50.9929 144.026 51.7949 142.425 53.3997C140.866 55.0044 139.371 57.1312 137.938 59.7786C136.506 62.4265 135.219 65.376 134.081 68.6256C132.985 71.8752 132.101 75.1654 131.427 78.4951C130.753 81.8251 130.416 84.935 130.416 87.8237C130.416 90.311 130.69 91.9973 131.238 92.8799C131.786 93.7617 132.418 94.2025 133.134 94.2025C134.187 94.2024 135.242 93.6815 136.295 92.6385C137.39 91.5554 138.463 89.9901 139.517 87.9445C140.612 85.8986 141.667 83.4709 142.678 80.6628C143.731 77.8144 144.765 74.6242 145.776 71.0938C146.787 67.5633 147.778 63.7714 148.747 59.7195C149.379 57.0316 149.631 54.904 149.504 53.3393C149.42 51.7752 148.599 50.9932 147.041 50.9929Z" fill="var(--rouge-pns)"/>
<path d="M397.815 17.8276C399.91 17.8277 401.608 19.5217 401.608 21.6113V30.44C401.608 32.5296 399.91 34.2236 397.815 34.2237H382.695C380.6 34.2237 378.901 35.9177 378.901 38.0074V40.0619L357.405 47.6939V38.0074C357.405 35.9177 355.706 34.2237 353.611 34.2237H339.647C337.552 34.2237 335.854 32.5296 335.854 30.44V21.6113C335.854 19.5217 337.552 17.8276 339.647 17.8276H397.815Z" fill="var(--rouge-pns)"/>
<path fill-rule="evenodd" clip-rule="evenodd" d="M149.631 9.703L152.782 12.7771L152.876 12.8695V17.2345L152.782 17.327L149.631 20.4014L149.538 20.4912H142.373V26.6397H137.54V9.61317H149.538L149.631 9.703ZM142.373 15.7616H148.042V14.3427H142.373V15.7616Z" fill="var(--noir)"/>
<path d="M164.585 18.5711V9.61317H169.418V26.6397H162.588L158.915 17.6805V26.6397H154.082V9.61317H160.912L164.585 18.5711Z" fill="var(--noir)"/>
<path d="M186.223 14.3427H175.721V15.7616H186.223V23.5581L186.128 23.6515L183.157 26.5498L183.066 26.6397H170.888V21.9101H179.29V20.4912H170.888V12.6947L170.981 12.601L173.953 9.703L174.045 9.61317H186.223V14.3427Z" fill="var(--noir)"/>
</svg>
