<svg
  width="515"
  height="168"
  viewBox="0 0 515 168"
  fill="none"
  xmlns="http://www.w3.org/2000/svg"
  aria-label="PNS"
>
  <path
    d="M224.972 10.9016V0H250.334L261.204 14.5355V0H290.19V7.26773L297.436 0H348.162L514.83 167.83H261.204L167 72.6773V0H214.102L224.972 10.9016Z"
    fill="black"></path>
  <path
    d="M319.176 50.8741H290.19V65.4096H330.667L340.915 55.1315V29.0709H304.683V21.8032H340.915V7.26773H300.438L290.19 17.5459V43.6064H319.176V50.8741Z"
    fill="white"></path>
  <path
    d="M268.451 65.4096H282.943V7.26773H268.451V36.3387L246.711 7.26773H232.218V65.4096H246.711V36.3387L268.451 65.4096Z"
    fill="white"></path>
  <path
    fill-rule="evenodd"
    clip-rule="evenodd"
    d="M210.479 7.26773L224.972 21.8032V29.0709L210.479 43.6064H188.739V65.4096H174.246V7.26773H210.479ZM188.739 21.8032V29.0709H210.479V21.8032H188.739Z"
    fill="white"></path>
</svg>