<svg width="515" height="155" viewBox="0 0 515 155" fill="none" xmlns="http://www.w3.org/2000/svg"
  title="PNS">
  <path d="M244.833 154.667L167.5 77.3333V0H360.833L515.5 154.667H244.833Z" fill="#1B0015" />
  <path
    d="M328.933 54.1332H298V69.5999H341.197L352.133 58.6633V30.9332H313.467V23.1999H352.133V7.73324H308.937L298 18.6698V46.3999H328.933V54.1332Z"
    fill="white" />
  <path
    d="M267.067 69.5999H290.267V7.73324H274.8L274.8 46.3999L259.333 7.73324H236.133V69.5999H251.6L251.6 30.9332L267.067 69.5999Z"
    fill="white" />
  <path fill-rule="evenodd" clip-rule="evenodd"
    d="M217.767 7.73324L229.367 19.3332V34.7999L217.767 46.3999L190.7 46.3999V69.5999H175.233V7.73324H217.767ZM213.9 23.1999V30.9332H190.7V23.1999H213.9Z"
    fill="white" />
</svg>