<svg
  width="28"
  height="28"
  viewBox="0 0 28 28"
  fill="currentColor"
  xmlns="http://www.w3.org/2000/svg"
>
  <path
    d="M14 13.4191C12.7318 10.9528 9.27967 6.35729 6.069 4.09162C2.99367 1.92045 1.82117 2.29612 1.05233 2.64495C0.162167 3.04512 0 4.41245 0 5.21512C0 6.02012 0.441 11.8068 0.728 12.774C1.67883 15.966 5.05983 17.044 8.17483 16.6986C8.3335 16.6753 8.49567 16.6531 8.659 16.6333C8.498 16.659 8.337 16.68 8.17483 16.6986C3.61083 17.3753 -0.443333 19.0378 4.87317 24.9563C10.7217 31.0113 12.8882 23.6578 14 19.9303C15.1118 23.6578 16.3917 30.7465 23.0218 24.9563C28 19.9303 24.3892 17.3753 19.8252 16.6986C19.6633 16.6807 19.5018 16.6589 19.341 16.6333C19.5043 16.6531 19.6665 16.6753 19.8252 16.6986C22.9402 17.0451 26.3212 15.966 27.272 12.774C27.559 11.808 28 6.01895 28 5.21629C28 4.41129 27.8378 3.04512 26.9477 2.64262C26.1788 2.29495 25.0063 1.91929 21.931 4.08929C18.7203 6.35845 15.2682 10.954 14 13.4191Z"
  ></path>
</svg>