<svg
  width="28"
  height="28"
  viewBox="0 0 28 28"
  fill="currentColor"
  xmlns="http://www.w3.org/2000/svg"
>
  <path
    d="M23.7032 5.91721C21.8879 5.08393 19.9721 4.48973 18.0039 4.14948C17.986 4.14614 17.9675 4.14853 17.9511 4.1563C17.9347 4.16407 17.9211 4.17683 17.9123 4.19276C17.6661 4.63061 17.3935 5.20169 17.2026 5.65051C15.0505 5.32828 12.9093 5.32828 10.8014 5.65051C10.6105 5.19166 10.3279 4.63061 10.0807 4.19276C10.0715 4.17719 10.0579 4.16475 10.0416 4.15705C10.0252 4.14935 10.007 4.14675 9.98912 4.14959C8.0207 4.48905 6.10481 5.08321 4.28972 5.91709C4.27419 5.92373 4.26111 5.93502 4.25227 5.94941C0.622305 11.3725 -0.372162 16.6623 0.115738 21.8865C0.117118 21.8993 0.12105 21.9117 0.127302 21.923C0.133555 21.9342 0.142 21.9441 0.152138 21.952C2.54707 23.7109 4.86699 24.7786 7.14385 25.4863C7.16156 25.4916 7.18045 25.4913 7.19801 25.4856C7.21557 25.4798 7.23095 25.4688 7.24209 25.4541C7.78062 24.7186 8.2607 23.943 8.67242 23.1275C8.67808 23.1164 8.68131 23.1041 8.6819 23.0916C8.68249 23.0791 8.68042 23.0666 8.67584 23.055C8.67125 23.0433 8.66425 23.0328 8.6553 23.024C8.64635 23.0153 8.63564 23.0085 8.62389 23.0042C7.86229 22.7153 7.1372 22.3631 6.43965 21.9632C6.42693 21.9557 6.41625 21.9452 6.40854 21.9327C6.40084 21.9201 6.39635 21.9058 6.39547 21.8911C6.3946 21.8763 6.39736 21.8616 6.40352 21.8482C6.40968 21.8348 6.41904 21.8231 6.43079 21.8142C6.57755 21.7042 6.72444 21.5899 6.86455 21.4742C6.87701 21.464 6.89208 21.4574 6.90808 21.4552C6.92407 21.4531 6.94035 21.4554 6.95509 21.462C11.5375 23.5542 16.4984 23.5542 21.0267 21.462C21.0415 21.455 21.0579 21.4523 21.0741 21.4543C21.0903 21.4562 21.1057 21.4627 21.1183 21.4731C21.2585 21.5886 21.4053 21.7042 21.5532 21.8142C21.565 21.8231 21.5744 21.8346 21.5807 21.848C21.5869 21.8613 21.5898 21.876 21.589 21.8907C21.5883 21.9054 21.5839 21.9197 21.5763 21.9323C21.5687 21.9449 21.5582 21.9555 21.5455 21.9631C20.8477 22.3706 20.1167 22.7185 19.3604 23.003C19.3486 23.0075 19.338 23.0145 19.3291 23.0234C19.3202 23.0322 19.3133 23.0429 19.3088 23.0547C19.3043 23.0664 19.3024 23.079 19.3031 23.0915C19.3038 23.1041 19.3071 23.1164 19.3129 23.1275C19.7334 23.9419 20.2134 24.7175 20.7421 25.4529C20.7528 25.4681 20.7682 25.4795 20.7858 25.4855C20.8034 25.4915 20.8225 25.4918 20.8403 25.4863C23.1281 24.7785 25.448 23.7107 27.843 21.952C27.8533 21.9445 27.8619 21.9348 27.8682 21.9237C27.8745 21.9126 27.8783 21.9003 27.8795 21.8876C28.4633 15.8478 26.9016 10.6014 23.7396 5.95046C23.7318 5.93535 23.7189 5.92363 23.7032 5.91721ZM9.35667 18.7055C7.97709 18.7055 6.84029 17.4389 6.84029 15.8833C6.84029 14.3279 7.95504 13.0613 9.35679 13.0613C10.7694 13.0613 11.8951 14.339 11.8731 15.8835C11.8731 17.4389 10.7583 18.7055 9.35667 18.7055ZM18.6606 18.7055C17.281 18.7055 16.1442 17.4389 16.1442 15.8833C16.1442 14.3279 17.2589 13.0613 18.6606 13.0613C20.0732 13.0613 21.1989 14.339 21.1769 15.8835C21.1769 17.4389 20.0732 18.7055 18.6606 18.7055Z"
  ></path>
</svg>