<svg
  width="28"
  height="28"
  viewBox="0 0 28 28"
  fill="currentColor"
  xmlns="http://www.w3.org/2000/svg"
>
  <path
    d="M8.20176 0.917111C6.71216 0.987345 5.69494 1.22511 4.80559 1.57441C3.88533 1.93316 3.10518 2.41441 2.329 3.19339C1.55293 3.97238 1.07483 4.75299 0.718762 5.67489C0.374129 6.56599 0.140562 7.58414 0.0747618 9.07456C0.00896185 10.565 -0.00562148 11.0441 0.00172852 14.8461C0.00896185 18.6478 0.0257619 19.1243 0.0979785 20.6179C0.169145 22.1072 0.405979 23.1241 0.755395 24.0137C1.11473 24.9341 1.5954 25.7139 2.37473 26.4903C3.15395 27.2667 3.93398 27.7437 4.85798 28.1003C5.74838 28.4445 6.76676 28.6791 8.25694 28.7443C9.74713 28.8097 10.2267 28.8248 14.0275 28.8175C17.8283 28.8102 18.3068 28.7933 19.7999 28.7225C21.2933 28.6517 22.3048 28.4131 23.1947 28.0653C24.1151 27.7053 24.8955 27.2253 25.6713 26.4459C26.4471 25.6663 26.9249 24.8851 27.2807 23.9627C27.6257 23.0723 27.8601 22.0541 27.9247 20.5649C27.9901 19.0706 28.0055 18.5935 27.9982 14.7923C27.9909 10.9909 27.9737 10.5143 27.9029 9.02136C27.8321 7.52838 27.5949 6.51454 27.2457 5.62438C26.8859 4.70399 26.4057 3.92478 25.6269 3.14778C24.8479 2.37078 24.066 1.89338 23.1441 1.53836C22.253 1.19361 21.2353 0.958761 19.7451 0.894361C18.2549 0.829961 17.7753 0.813278 13.9731 0.820745C10.171 0.827978 9.69498 0.844311 8.20176 0.917111ZM8.36533 26.2257C7.00033 26.1663 6.25914 25.9395 5.76518 25.7497C5.11114 25.4977 4.64518 25.1931 4.15296 24.7056C3.66063 24.2181 3.35835 23.7505 3.10296 23.0979C2.91116 22.6039 2.68016 21.8636 2.61635 20.4986C2.54693 19.0233 2.53235 18.5803 2.52418 14.8426C2.51601 11.1049 2.53036 10.6624 2.595 9.18656C2.65333 7.82273 2.88153 7.08073 3.071 6.58699C3.32299 5.93214 3.62656 5.46699 4.11516 4.97513C4.60376 4.48314 5.06996 4.18016 5.72318 3.92478C6.21668 3.73216 6.95693 3.50314 8.32134 3.43816C9.79776 3.36816 10.2402 3.35416 13.9773 3.34599C17.7145 3.33783 18.1581 3.35183 19.6351 3.41693C20.9989 3.47619 21.7413 3.70218 22.2344 3.89293C22.8887 4.14493 23.3544 4.44756 23.8463 4.93709C24.3383 5.42639 24.6415 5.89096 24.8969 6.54558C25.0897 7.03756 25.3189 7.77758 25.3833 9.14293C25.4535 10.6193 25.4695 11.0621 25.4761 14.7989C25.4829 18.5358 25.4697 18.9796 25.405 20.4549C25.3455 21.8199 25.1191 22.5613 24.929 23.0559C24.677 23.7097 24.3733 24.1759 23.8843 24.6675C23.3955 25.1593 22.9299 25.4621 22.2763 25.7175C21.7835 25.9099 21.0423 26.1395 19.6791 26.2045C18.2025 26.2739 17.7601 26.2885 14.0216 26.2967C10.283 26.3048 9.84174 26.2897 8.36533 26.2257ZM19.7785 7.33658C19.779 7.66888 19.8781 7.99355 20.0632 8.26953C20.2483 8.54552 20.5111 8.76041 20.8183 8.88703C21.1255 9.01365 21.4634 9.04632 21.7892 8.98089C22.115 8.91547 22.4141 8.7549 22.6486 8.51948C22.8832 8.28407 23.0426 7.98439 23.1068 7.65835C23.171 7.33231 23.1371 6.99455 23.0093 6.6878C22.8815 6.38104 22.6657 6.11907 22.389 5.93501C22.1123 5.75096 21.7873 5.65309 21.455 5.65378C21.0095 5.65471 20.5827 5.8325 20.2683 6.14806C19.9539 6.46363 19.7777 6.89113 19.7785 7.33658ZM6.81156 14.8331C6.81938 18.8035 10.0439 22.0148 14.0134 22.0073C17.9831 21.9997 21.1966 18.7755 21.1891 14.8051C21.1815 10.8347 17.9563 7.62253 13.9861 7.63034C10.0159 7.63816 6.80409 10.8632 6.81156 14.8331ZM9.33331 14.8281C9.33149 13.9051 9.6034 13.0023 10.1147 12.2339C10.6259 11.4655 11.3536 10.8659 12.2056 10.511C13.0576 10.1561 13.9957 10.0618 14.9013 10.2401C15.8069 10.4184 16.6393 10.8612 17.2932 11.5125C17.9472 12.1638 18.3933 12.9945 18.5751 13.8994C18.757 14.8042 18.6665 15.7427 18.315 16.5961C17.9635 17.4496 17.3668 18.1796 16.6004 18.6939C15.834 19.2082 14.9323 19.4837 14.0093 19.4855C13.3964 19.4868 12.7893 19.3674 12.2226 19.134C11.656 18.9006 11.1408 18.5579 10.7066 18.1254C10.2723 17.6929 9.92758 17.1791 9.69195 16.6133C9.45633 16.0476 9.33446 15.441 9.33331 14.8281Z"
  ></path>
</svg>