<svg
  width="28"
  height="28"
  viewBox="0 0 28 28"
  fill="currentColor"
  xmlns="http://www.w3.org/2000/svg"
>
  <path
    d="M14.6125 0.842425C16.1408 0.819092 17.6575 0.830758 19.1741 0.819092C19.2675 2.60409 19.9091 4.42409 21.2158 5.68409C22.5225 6.97909 24.3658 7.57409 26.1625 7.77243V12.4741C24.4825 12.4158 22.7908 12.0658 21.2625 11.3424C20.5975 11.0391 19.9791 10.6541 19.3725 10.2574C19.3608 13.6641 19.3841 17.0708 19.3491 20.4658C19.2558 22.0991 18.7191 23.7208 17.7741 25.0624C16.2458 27.3024 13.5975 28.7608 10.8791 28.8074C9.21081 28.9008 7.54248 28.4458 6.11914 27.6058C3.76248 26.2174 2.10581 23.6741 1.86081 20.9441C1.83748 20.3608 1.82581 19.7774 1.84914 19.2058C2.05914 16.9891 3.15581 14.8658 4.85914 13.4191C6.79581 11.7391 9.50248 10.9341 12.0341 11.4124C12.0575 13.1391 11.9875 14.8658 11.9875 16.5924C10.8325 16.2191 9.47914 16.3241 8.46414 17.0241C7.72914 17.5024 7.16914 18.2374 6.87748 19.0658C6.63248 19.6608 6.70248 20.3141 6.71414 20.9441C6.99414 22.8574 8.83748 24.4674 10.7975 24.2924C12.1041 24.2808 13.3525 23.5224 14.0291 22.4141C14.2508 22.0291 14.4958 21.6324 14.5075 21.1774C14.6241 19.0891 14.5775 17.0124 14.5891 14.9241C14.6008 10.2224 14.5775 5.53242 14.6125 0.842425Z"
  ></path>
</svg>