<svg
  width="28"
  height="28"
  viewBox="0 0 28 28"
  fill="currentColor"
  xmlns="http://www.w3.org/2000/svg"
>
  <path
    d="M27.4143 8.03606C27.2561 7.44022 26.9442 6.89639 26.5097 6.45904C26.0752 6.02168 25.5335 5.70616 24.9387 5.54406C22.7558 4.9549 14 4.9549 14 4.9549C14 4.9549 5.24417 4.9549 3.06017 5.54406C2.46564 5.70645 1.92418 6.02208 1.48992 6.45941C1.05567 6.89673 0.743857 7.44041 0.585667 8.03606C0 10.2341 0 14.8191 0 14.8191C0 14.8191 0 19.4041 0.585667 21.6021C0.74385 22.1979 1.0558 22.7417 1.49029 23.1791C1.92478 23.6164 2.46654 23.932 3.06133 24.0941C5.24417 24.6832 14 24.6832 14 24.6832C14 24.6832 22.7558 24.6832 24.9398 24.0941C25.5347 23.9321 26.0765 23.6166 26.511 23.1792C26.9455 22.7418 27.2574 22.198 27.4155 21.6021C28 19.4041 28 14.8191 28 14.8191C28 14.8191 28 10.2341 27.4143 8.03606ZM11.1358 18.9817V10.6564L18.4543 14.8191L11.1358 18.9817Z"
  ></path>
</svg>